<?xml version="1.0" standalone="no"?>
<!DOCTYPE svg PUBLIC "-//W3C//DTD SVG 20010904//EN"
 "http://www.w3.org/TR/2001/REC-SVG-20010904/DTD/svg10.dtd">
<svg version="1.0" xmlns="http://www.w3.org/2000/svg"
 width="797.000000pt" height="797.000000pt" viewBox="0 0 797.000000 797.000000"
 preserveAspectRatio="xMidYMid meet">
<metadata>
Created by potrace 1.11, written by Peter Selinger 2001-2013
</metadata>
<g transform="translate(0.000000,797.000000) scale(0.100000,-0.100000)"
fill="#000000" stroke="none">
<path d="M0 3985 l0 -3985 3985 0 3985 0 0 3985 0 3985 -3985 0 -3985 0 0
-3985z m7668 1713 c-3 -251 -5 -297 -20 -324 -9 -16 -307 -315 -662 -663
l-646 -633 0 -709 0 -709 -210 0 -210 0 0 778 0 779 23 40 c12 22 303 315 660
664 350 343 637 630 637 636 0 10 -198 13 -965 13 l-965 0 0 210 0 210 1181 0
1180 0 -3 -292z m-6930 -26 c33 -13 183 -158 707 -681 l665 -664 0 -171 -1
-171 -669 -660 c-710 -700 -689 -682 -786 -684 -171 -3 -288 172 -216 320 16
32 180 196 617 617 327 315 595 577 595 582 0 4 -267 270 -594 590 -327 321
-599 594 -605 609 -45 118 2 252 108 308 53 28 117 29 179 5z m3516 -670 c40
-14 82 -49 230 -192 100 -96 195 -193 211 -215 29 -39 30 -43 33 -182 l3 -143
-210 0 -211 0 0 64 0 64 -106 101 -107 101 -391 0 -390 0 -48 -47 c-26 -26
-48 -51 -48 -55 0 -4 331 -264 734 -578 404 -314 744 -582 755 -597 47 -59 50
-156 8 -224 -28 -46 -386 -392 -429 -416 -31 -17 -73 -18 -573 -18 -521 0
-541 1 -577 20 -20 11 -120 99 -223 195 -231 218 -235 225 -235 392 l0 118
215 0 215 0 0 -53 0 -54 103 -101 102 -102 400 0 399 0 48 47 c26 26 48 50 48
54 0 4 -321 256 -712 560 -392 303 -726 564 -742 578 -62 57 -86 179 -48 248
24 45 368 400 406 420 17 9 42 19 56 24 14 4 252 7 530 8 451 0 510 -2 554
-17z m806 -3427 l0 -155 -1315 0 -1315 0 0 155 0 155 1315 0 1315 0 0 -155z"/>
</g>
</svg>
